<svg xmlns="http://www.w3.org/2000/svg" width="633.04736328125" height="526.6090087890625" viewBox="-325.8067626953125 -207.250732421875 633.04736328125 526.6090087890625"><title>Neo4j Graph Visualization</title><desc>Created using Neo4j (http://www.neo4j.com/)</desc><g class="layer relationships"><g class="relationship" transform="translate(-191.6917104166654 -17.672058109817613) rotate(212.76391324448383)"><path class="b-outline" fill="#A5ABB6" stroke="none" d="M 25 0.5 L 44.8876778164513 0.5 L 44.8876778164513 -0.5 L 25 -0.5 Z M 73.1142403164513 0.5 L 93.0019181329026 0.5 L 93.0019181329026 3.5 L 100.0019181329026 0 L 93.0019181329026 -3.5 L 93.0019181329026 -0.5 L 73.1142403164513 -0.5 Z"/><text text-anchor="middle" pointer-events="none" font-size="8px" fill="#000000" x="59.0009590664513" y="3" transform="rotate(180 59.0009590664513 0)" font-family="Helvetica Neue, Helvetica, Arial, sans-serif">mayor</text></g><g class="relationship" transform="translate(216.99589862561083 290.3582652919803) rotate(210.84697474391066)"><path class="b-outline" fill="#A5ABB6" stroke="none" d="M 25 0.5 L 45.52592438875269 0.5 L 45.52592438875269 -0.5 L 25 -0.5 Z M 73.75248688875268 0.5 L 94.27841127750538 0.5 L 94.27841127750538 3.5 L 101.27841127750538 0 L 94.27841127750538 -3.5 L 94.27841127750538 -0.5 L 73.75248688875268 -0.5 Z"/><text text-anchor="middle" pointer-events="none" font-size="8px" fill="#000000" x="59.63920563875269" y="3" transform="rotate(180 59.63920563875269 0)" font-family="Helvetica Neue, Helvetica, Arial, sans-serif">mayor</text></g><g class="relationship" transform="translate(21.514936393023536 -11.937250033989747) rotate(359.85903816885957)"><path class="b-outline" fill="#A5ABB6" stroke="none" d="M 25 0.5 L 53.46506826973055 0.5 L 53.46506826973055 -0.5 L 25 -0.5 Z M 81.69163076973055 0.5 L 110.1566990394611 0.5 L 110.1566990394611 3.5 L 117.1566990394611 0 L 110.1566990394611 -3.5 L 110.1566990394611 -0.5 L 81.69163076973055 -0.5 Z"/><text text-anchor="middle" pointer-events="none" font-size="8px" fill="#000000" x="67.57834951973055" y="3" font-family="Helvetica Neue, Helvetica, Arial, sans-serif">mayor</text></g><g class="relationship" transform="translate(108.58085630861062 225.6093984742988) rotate(341.1915882839161)"><path class="b-outline" fill="#A5ABB6" stroke="none" d="M 25 0.5 L 71.77720830141375 0.5 L 71.77720830141375 -0.5 L 25 -0.5 Z M 100.45298955141375 0.5 L 147.2301978528275 0.5 L 147.2301978528275 3.5 L 154.2301978528275 0 L 147.2301978528275 -3.5 L 147.2301978528275 -0.5 L 100.45298955141375 -0.5 Z"/><text text-anchor="middle" pointer-events="none" font-size="8px" fill="#000000" x="86.11509892641375" y="3" font-family="Helvetica Neue, Helvetica, Arial, sans-serif">livesIn</text></g><g class="relationship" transform="translate(-296.80677617624775 -85.32043197987868) rotate(336.5131519579156)"><path class="b-outline" fill="#A5ABB6" stroke="none" d="M 25 0.5 L 66.99472585306586 0.5 L 66.99472585306586 -0.5 L 25 -0.5 Z M 95.67050710306586 0.5 L 137.66523295613172 0.5 L 137.66523295613172 3.5 L 144.66523295613172 0 L 137.66523295613172 -3.5 L 137.66523295613172 -0.5 L 95.67050710306586 -0.5 Z"/><text text-anchor="middle" pointer-events="none" font-size="8px" fill="#000000" x="81.33261647806586" y="3" font-family="Helvetica Neue, Helvetica, Arial, sans-serif">livesIn</text></g><g class="relationship" transform="translate(163.6712052082048 -12.286990426051881) rotate(257.6305051962432)"><path class="b-outline" fill="#A5ABB6" stroke="none" d="M 25 0.5 L 50.502304556144 0.5 L 50.502304556144 -0.5 L 25 -0.5 Z M 79.178085806144 0.5 L 104.680390362288 0.5 L 104.680390362288 3.5 L 111.680390362288 0 L 104.680390362288 -3.5 L 104.680390362288 -0.5 L 79.178085806144 -0.5 Z"/><text text-anchor="middle" pointer-events="none" font-size="8px" fill="#000000" x="64.840195181144" y="3" transform="rotate(180 64.840195181144 0)" font-family="Helvetica Neue, Helvetica, Arial, sans-serif">livesIn</text></g><g class="relationship" transform="translate(278.2405088361628 167.82474543740716) rotate(476.55676494129307)"><path class="b-outline" fill="#A5ABB6" stroke="none" d="M 25 0.5 L 46.65352411834458 0.5 L 46.65352411834458 -0.5 L 25 -0.5 Z M 83.33321161834458 0.5 L 104.98673573668916 0.5 L 104.98673573668916 3.5 L 111.98673573668916 0 L 104.98673573668916 -3.5 L 104.98673573668916 -0.5 L 83.33321161834458 -0.5 Z"/><text text-anchor="middle" pointer-events="none" font-size="8px" fill="#000000" x="64.99336786834458" y="3" transform="rotate(180 64.99336786834458 0)" font-family="Helvetica Neue, Helvetica, Arial, sans-serif">townHall</text></g><g class="relationship" transform="translate(-141.19803951851316 -152.93856822927742) rotate(470.47011352649787)"><path class="b-outline" fill="#A5ABB6" stroke="none" d="M 25 0.5 L 50.35198328164678 0.5 L 50.35198328164678 -0.5 L 25 -0.5 Z M 87.03167078164678 0.5 L 112.38365406329356 0.5 L 112.38365406329356 3.5 L 119.38365406329356 0 L 112.38365406329356 -3.5 L 112.38365406329356 -0.5 L 87.03167078164678 -0.5 Z"/><text text-anchor="middle" pointer-events="none" font-size="8px" fill="#000000" x="68.69182703164678" y="3" transform="rotate(180 68.69182703164678 0)" font-family="Helvetica Neue, Helvetica, Arial, sans-serif">townHall</text></g><g class="relationship" transform="translate(134.392174287235 -145.7945462343893) rotate(490.1397796197472)"><path class="b-outline" fill="#A5ABB6" stroke="none" d="M 25 0.5 L 65.7087807119353 0.5 L 65.7087807119353 -0.5 L 25 -0.5 Z M 102.3884682119353 0.5 L 143.0972489238706 0.5 L 143.0972489238706 3.5 L 150.0972489238706 0 L 143.0972489238706 -3.5 L 143.0972489238706 -0.5 L 102.3884682119353 -0.5 Z"/><text text-anchor="middle" pointer-events="none" font-size="8px" fill="#000000" x="84.0486244619353" y="3" transform="rotate(180 84.0486244619353 0)" font-family="Helvetica Neue, Helvetica, Arial, sans-serif">townHall</text></g><g class="relationship" transform="translate(-261.5515472914451 -178.25073712894255) rotate(426.4885260931518)"><path class="b-outline" fill="#A5ABB6" stroke="none" d="M 25 0.5 L 64.82404687319558 0.5 L 64.82404687319558 -0.5 L 25 -0.5 Z M 103.29279687319558 0.5 L 143.11684374639117 0.5 L 143.11684374639117 3.5 L 150.11684374639117 0 L 143.11684374639117 -3.5 L 143.11684374639117 -0.5 L 103.29279687319558 -0.5 Z"/><text text-anchor="middle" pointer-events="none" font-size="8px" fill="#000000" x="84.05842187319558" y="3" font-family="Helvetica Neue, Helvetica, Arial, sans-serif">locatedIn</text></g><g class="relationship" transform="translate(154.91770165337093 137.63648870550128) rotate(427.8792898741285)"><path class="b-outline" fill="#A5ABB6" stroke="none" d="M 25 0.5 L 59.69384162370025 0.5 L 59.69384162370025 -0.5 L 25 -0.5 Z M 98.16259162370025 0.5 L 132.8564332474005 0.5 L 132.8564332474005 3.5 L 139.8564332474005 0 L 132.8564332474005 -3.5 L 132.8564332474005 -0.5 L 98.16259162370025 -0.5 Z"/><text text-anchor="middle" pointer-events="none" font-size="8px" fill="#000000" x="78.92821662370025" y="3" font-family="Helvetica Neue, Helvetica, Arial, sans-serif">locatedIn</text></g><g class="relationship" transform="translate(-2.326053938265591 -153.3543834144955) rotate(440.4306973200762)"><path class="b-outline" fill="#A5ABB6" stroke="none" d="M 25 0.5 L 48.971967874142535 0.5 L 48.971967874142535 -0.5 L 25 -0.5 Z M 87.44071787414254 0.5 L 111.41268574828507 0.5 L 111.41268574828507 3.5 L 118.41268574828507 0 L 111.41268574828507 -3.5 L 111.41268574828507 -0.5 L 87.44071787414254 -0.5 Z"/><text text-anchor="middle" pointer-events="none" font-size="8px" fill="#000000" x="68.20634287414254" y="3" font-family="Helvetica Neue, Helvetica, Arial, sans-serif">locatedIn</text></g><g class="relationship" transform="translate(134.392174287235 -145.7945462343893) rotate(183.1649482554414)"><path class="b-outline" fill="#A5ABB6" stroke="none" d="M 25 0.5 L 42.61783656458549 0.5 L 42.61783656458549 -0.5 L 25 -0.5 Z M 87.30924281458549 0.5 L 104.92707937917098 0.5 L 104.92707937917098 3.5 L 111.92707937917098 0 L 104.92707937917098 -3.5 L 104.92707937917098 -0.5 L 87.30924281458549 -0.5 Z"/><text text-anchor="middle" pointer-events="none" font-size="8px" fill="#000000" x="64.96353968958549" y="3" transform="rotate(180 64.96353968958549 0)" font-family="Helvetica Neue, Helvetica, Arial, sans-serif">situatedOn</text></g><g class="relationship" transform="translate(-141.19803951851316 -152.93856822927742) rotate(191.8770734231765)"><path class="b-outline" fill="#A5ABB6" stroke="none" d="M 25 0.5 L 35.647533754461726 0.5 L 35.647533754461726 -0.5 L 25 -0.5 Z M 80.33894000446173 0.5 L 90.98647375892345 0.5 L 90.98647375892345 3.5 L 97.98647375892345 0 L 90.98647375892345 -3.5 L 90.98647375892345 -0.5 L 80.33894000446173 -0.5 Z"/><text text-anchor="middle" pointer-events="none" font-size="8px" fill="#000000" x="57.993236879461726" y="3" transform="rotate(180 57.993236879461726 0)" font-family="Helvetica Neue, Helvetica, Arial, sans-serif">situatedOn</text></g><g class="relationship" transform="translate(278.2405088361628 167.82474543740716) rotate(193.75497861560456)"><path class="b-outline" fill="#A5ABB6" stroke="none" d="M 25 0.5 L 37.636273876262976 0.5 L 37.636273876262976 -0.5 L 25 -0.5 Z M 82.32768012626298 0.5 L 94.96395400252595 0.5 L 94.96395400252595 3.5 L 101.96395400252595 0 L 94.96395400252595 -3.5 L 94.96395400252595 -0.5 L 82.32768012626298 -0.5 Z"/><text text-anchor="middle" pointer-events="none" font-size="8px" fill="#000000" x="59.981977001262976" y="3" transform="rotate(180 59.981977001262976 0)" font-family="Helvetica Neue, Helvetica, Arial, sans-serif">situatedOn</text></g></g><g class="layer nodes"><g class="node" aria-label="graph-node31" transform="translate(-191.6917104166654,-17.672058109817613)"><circle class="b-outline" cx="0" cy="0" r="25" fill="#57C7E3" stroke="#23b3d7" stroke-width="2px"/><text class="caption" text-anchor="middle" pointer-events="none" x="0" y="5" font-size="10px" fill="#2A2C34" font-family="Helvetica Neue, Helvetica, Arial, sans-serif"> Rovinka</text></g><g class="node" aria-label="graph-node32" transform="translate(216.99589862561083,290.3582652919803)"><circle class="b-outline" cx="0" cy="0" r="25" fill="#57C7E3" stroke="#23b3d7" stroke-width="2px"/><text class="caption" text-anchor="middle" pointer-events="none" x="0" y="5" font-size="10px" fill="#2A2C34" font-family="Helvetica Neue, Helvetica, Arial, sans-serif"> Svätý Jur</text></g><g class="node" aria-label="graph-node33" transform="translate(21.514936393023536,-11.937250033989747)"><circle class="b-outline" cx="0" cy="0" r="25" fill="#57C7E3" stroke="#23b3d7" stroke-width="2px"/><text class="caption" text-anchor="middle" pointer-events="none" x="0" y="5" font-size="10px" fill="#2A2C34" font-family="Helvetica Neue, Helvetica, Arial, sans-serif"> Zlín</text></g><g class="node" aria-label="graph-node34" transform="translate(278.2405088361628,167.82474543740716)"><circle class="b-outline" cx="0" cy="0" r="25" fill="#F16667" stroke="#eb2728" stroke-width="2px"/><text class="caption" text-anchor="middle" pointer-events="none" x="0" y="5" font-size="10px" fill="#FFFFFF" font-family="Helvetica Neue, Helvetica, Arial, sans-serif"> 50.5</text></g><g class="node" aria-label="graph-node35" transform="translate(134.392174287235,-145.7945462343893)"><circle class="b-outline" cx="0" cy="0" r="25" fill="#F16667" stroke="#eb2728" stroke-width="2px"/><text class="caption" text-anchor="middle" pointer-events="none" x="0" y="5" font-size="10px" fill="#FFFFFF" font-family="Helvetica Neue, Helvetica, Arial, sans-serif"> </text></g><g class="node" aria-label="graph-node36" transform="translate(-141.19803951851316,-152.93856822927742)"><circle class="b-outline" cx="0" cy="0" r="25" fill="#F16667" stroke="#eb2728" stroke-width="2px"/><text class="caption" text-anchor="middle" pointer-events="none" x="0" y="5" font-size="10px" fill="#FFFFFF" font-family="Helvetica Neue, Helvetica, Arial, sans-serif"> </text></g><g class="node" aria-label="graph-node38" transform="translate(-261.5515472914451,-178.25073712894255)"><circle class="b-outline" cx="0" cy="0" r="25" fill="#D9C8AE" stroke="#c0a378" stroke-width="2px"/><text class="caption" text-anchor="middle" pointer-events="none" x="0" y="5" font-size="10px" fill="#2A2C34" font-family="Helvetica Neue, Helvetica, Arial, sans-serif"> Hlavná</text></g><g class="node" aria-label="graph-node39" transform="translate(154.91770165337093,137.63648870550128)"><circle class="b-outline" cx="0" cy="0" r="25" fill="#D9C8AE" stroke="#c0a378" stroke-width="2px"/><text class="caption" text-anchor="middle" pointer-events="none" x="0" y="5" font-size="10px" fill="#2A2C34" font-family="Helvetica Neue, Helvetica, Arial, sans-serif"> Športová</text></g><g class="node" aria-label="graph-node40" transform="translate(-2.326053938265591,-153.3543834144955)"><circle class="b-outline" cx="0" cy="0" r="25" fill="#D9C8AE" stroke="#c0a378" stroke-width="2px"/><text class="caption" text-anchor="middle" pointer-events="none" x="0" y="5" font-size="10px" fill="#2A2C34" font-family="Helvetica Neue, Helvetica, Arial, sans-serif"> Mramor…</text></g><g class="node" aria-label="graph-node41" transform="translate(163.6712052082048,-12.286990426051881)"><circle class="b-outline" cx="0" cy="0" r="25" fill="#C990C0" stroke="#b261a5" stroke-width="2px"/><text class="caption" text-anchor="middle" pointer-events="none" x="0" y="5" font-size="10px" fill="#FFFFFF" font-family="Helvetica Neue, Helvetica, Arial, sans-serif"> </text></g><g class="node" aria-label="graph-node42" transform="translate(-296.80677617624775,-85.32043197987868)"><circle class="b-outline" cx="0" cy="0" r="25" fill="#C990C0" stroke="#b261a5" stroke-width="2px"/><text class="caption" text-anchor="middle" pointer-events="none" x="0" y="5" font-size="10px" fill="#FFFFFF" font-family="Helvetica Neue, Helvetica, Arial, sans-serif"> </text></g><g class="node" aria-label="graph-node43" transform="translate(108.58085630861062,225.6093984742988)"><circle class="b-outline" cx="0" cy="0" r="25" fill="#C990C0" stroke="#b261a5" stroke-width="2px"/><text class="caption" text-anchor="middle" pointer-events="none" x="0" y="5" font-size="10px" fill="#FFFFFF" font-family="Helvetica Neue, Helvetica, Arial, sans-serif"> </text></g></g></svg>