<?xml version="1.0" encoding="UTF-8" standalone="no"?>
<!DOCTYPE svg PUBLIC "-//W3C//DTD SVG 1.1//EN" "http://www.w3.org/Graphics/SVG/1.1/DTD/svg11.dtd">
<svg xmlns="http://www.w3.org/2000/svg" xmlns:xlink="http://www.w3.org/1999/xlink" version="1.1" width="594.95999pt" height="841.92pt" viewBox="0 0 594.95999 841.92">
<g enable-background="new">
<g>
<clipPath id="cp0">
<path transform="matrix(.24,0,0,.24,0,0)" d="M 0 0 L 2480 0 L 2480 3509 L 0 3509 Z " fill-rule="evenodd"/>
</clipPath>
<g clip-path="url(#cp0)">
<path transform="matrix(1.0004203,0,0,1.0004203,0,0)" d="M 0 0 L 793 0 L 793 1122 L 0 1122 Z " fill="#ffffff"/>
<g opacity=".498">
<clipPath id="cp1">
<path transform="matrix(.24,0,0,.24,0,0)" d="M 0 0 L 2479 0 L 2479 3508 L 0 3508 Z " fill-rule="evenodd"/>
</clipPath>
<g clip-path="url(#cp1)">
<text xml:space="preserve" transform="matrix(1.0004203 0 0 1.0004203 0 0)" font-size="10" font-family="LiberationSans"><tspan y="807" x="36 43.22 48.780004 51.56 53.780004 56.56 58.780004 64.340007">Untitled</tspan></text>
</g>
</g>
<g opacity=".498">
<clipPath id="cp2">
<path transform="matrix(.24,0,0,.24,0,0)" d="M 0 0 L 2479 0 L 2479 3508 L 0 3508 Z " fill-rule="evenodd"/>
</clipPath>
<g clip-path="url(#cp2)">
<text xml:space="preserve" transform="matrix(1.0004203 0 0 1.0004203 0 0)" font-size="10" font-family="LiberationSans"><tspan y="807" x="553.4375">1</tspan></text>
</g>
</g>
</g>
<clipPath id="cp3">
<path transform="matrix(.24,0,0,.24,0,0)" d="M 300 300 L 2179.1666 300 L 2179.1666 3207.8619 L 300 3207.8619 Z " fill-rule="evenodd"/>
</clipPath>
<g clip-path="url(#cp3)">
<path transform="matrix(.7504159,0,0,.7504159,72,72)" d="M 0 0 L 601 0 L 601 930 L 0 930 Z " fill="#ffffff"/>
<text xml:space="preserve" transform="matrix(.7504159 0 0 .7504159 72 72)" font-size="16" font-family="LiberationSans"><tspan y="47" x="0 11.552001 20.448002 24.896002 33.792005 38.240007 47.136007 52.464006 56.016008 64.91201">Cafeteria(</tspan></text>
<path transform="matrix(.7504159,0,0,.7504159,72,72)" d="M 70 50 L 152 50 L 152 51 L 70 51 Z "/>
<text xml:space="preserve" transform="matrix(.7504159 0 0 .7504159 72 72)" font-size="16" font-family="LiberationSans" font-weight="bold"><tspan y="47" x="70.25 79.146 88.04201 93.37001 102.266017 107.59402 116.49002 122.71402 127.16202 136.05802 140.50601">cafeteriaID</tspan></text>
<text xml:space="preserve" transform="matrix(.7504159 0 0 .7504159 72 72)" font-size="16" font-family="LiberationSans"><tspan y="47" x="152.0625 156.5105 160.9585 169.85449 178.75049 192.07849 200.97449 205.42249 209.87049 218.76648 227.66248 236.55847 241.88648 250.78247 258.78248 266.78248 271.23048">, name, address, </tspan></text>
<text xml:space="preserve" transform="matrix(.7504159 0 0 .7504159 72 72)" font-size="16" font-family="LiberationSans" font-weight="bold"><tspan y="47" x="275.67189 285.44789 295.22389 301.44789 315.67189 320.11988 325.44789 335.22389 341.44789 350.34388 354.79188">dormitoryID</tspan></text>
<text xml:space="preserve" transform="matrix(.7504159 0 0 .7504159 72 72)" font-size="16" font-family="LiberationSans"><tspan y="47" x="366.34376 370.79176">, </tspan></text>
<text xml:space="preserve" transform="matrix(.7504159 0 0 .7504159 72 72)" font-size="16" font-family="LiberationSans" font-weight="bold"><tspan y="47" x="375.23439 385.01039 394.78639 399.23439 408.13038 417.02638 423.25038 432.14637 436.59437 441.92237 450.81837 455.26637">universityID</tspan></text>
<text xml:space="preserve" transform="matrix(.7504159 0 0 .7504159 72 72)" font-size="16" font-family="LiberationSans"><tspan y="47" x="466.8125 472.1405 476.5885 481.0365 489.9325 498.8285 504.1565 517.4845 521.0365 525.4845 534.3805 539.7085 547.7085 552.1565 563.7085">), dormitoryID </tspan></text>
<text xml:space="preserve" transform="matrix(.7504159 0 0 .7504159 72 72)" font-size="16" font-family="Unnamed"><tspan y="47" x="568.15628">&#x2286;</tspan></text>
<text xml:space="preserve" transform="matrix(.7504159 0 0 .7504159 72 72)" font-size="16" font-family="LiberationSans"><tspan y="47" x="584.15628"> </tspan></text>
<text xml:space="preserve" transform="matrix(.7504159 0 0 .7504159 72 72)" font-size="16" font-family="LiberationSans"><tspan y="71" x="0 11.552001 20.448002 25.776001 39.104005 42.656007 47.104009 56.000009 61.328008 68.14844">Dormitory.</tspan></text>
<path transform="matrix(.7504159,0,0,.7504159,72,72)" d="M 73 74 L 163 74 L 163 75 L 73 75 Z "/>
<text xml:space="preserve" transform="matrix(.7504159 0 0 .7504159 72 72)" font-size="16" font-family="LiberationSans" font-weight="bold"><tspan y="71" x="72.59375 82.36975 92.14575 98.36975 112.59375 117.04175 122.36975 132.14575 138.36975 147.26575 151.71375">dormitoryID</tspan></text>
<text xml:space="preserve" transform="matrix(.7504159 0 0 .7504159 72 72)" font-size="16" font-family="LiberationSans"><tspan y="71" x="163.26563 167.71363 172.16162 181.05762 189.95362 193.50562 201.50562 210.40161 215.72962 223.72962 227.28162 231.72962 239.72962 244.17761 255.72962">, universityID </tspan></text>
<text xml:space="preserve" transform="matrix(.7504159 0 0 .7504159 72 72)" font-size="16" font-family="Unnamed"><tspan y="71" x="260.1797">&#x2286;</tspan></text>
<text xml:space="preserve" transform="matrix(.7504159 0 0 .7504159 72 72)" font-size="16" font-family="LiberationSans"><tspan y="71" x="276.17973 280.62773 292.17973 301.0757 304.62773 312.62773 321.5237 326.8517 334.8517 338.40373 342.8517 349.6719"> University.</tspan></text>
<path transform="matrix(.7504159,0,0,.7504159,72,72)" d="M 354 74 L 446 74 L 446 75 L 354 75 Z "/>
<path transform="matrix(.7504159,0,0,.7504159,72,72)" d="M 354 74 L 446 74 L 446 75 L 354 75 Z "/>
<path transform="matrix(.7504159,0,0,.7504159,72,72)" d="M 354 74 L 446 74 L 446 75 L 354 75 Z "/>
<path transform="matrix(.7504159,0,0,.7504159,72,72)" d="M 354 74 L 446 74 L 446 75 L 354 75 Z "/>
<path transform="matrix(.7504159,0,0,.7504159,72,72)" d="M 354 74 L 446 74 L 446 75 L 354 75 Z "/>
<path transform="matrix(.7504159,0,0,.7504159,72,72)" d="M 354 74 L 446 74 L 446 75 L 354 75 Z "/>
<path transform="matrix(.7504159,0,0,.7504159,72,72)" d="M 354 74 L 446 74 L 446 75 L 354 75 Z "/>
<path transform="matrix(.7504159,0,0,.7504159,72,72)" d="M 354 74 L 446 74 L 446 75 L 354 75 Z "/>
<path transform="matrix(.7504159,0,0,.7504159,72,72)" d="M 354 74 L 446 74 L 446 75 L 354 75 Z "/>
<path transform="matrix(.7504159,0,0,.7504159,72,72)" d="M 354 74 L 446 74 L 446 75 L 354 75 Z "/>
<path transform="matrix(.7504159,0,0,.7504159,72,72)" d="M 354 74 L 446 74 L 446 75 L 354 75 Z "/>
<path transform="matrix(.7504159,0,0,.7504159,72,72)" d="M 354 74 L 446 74 L 446 75 L 354 75 Z "/>
<text xml:space="preserve" transform="matrix(.7504159 0 0 .7504159 72 72)" font-size="16" font-family="LiberationSans" font-weight="bold"><tspan y="71" x="354.10939 363.88539 373.66139 378.10939 387.00538 395.90138 402.12538 411.02137 415.46937 420.79737 429.69337 434.14137">universityID</tspan></text>
<text xml:space="preserve" transform="matrix(.7504159 0 0 .7504159 72 72)" font-size="16" font-family="LiberationSans"><tspan y="135" x="0 11.552001 20.448002 25.776001 39.104005 42.656007 47.104009 56.000009 61.328008 69.328">Dormitory(</tspan></text>
<path transform="matrix(.7504159,0,0,.7504159,72,72)" d="M 75 138 L 165 138 L 165 139 L 75 139 Z "/>
<text xml:space="preserve" transform="matrix(.7504159 0 0 .7504159 72 72)" font-size="16" font-family="LiberationSans" font-weight="bold"><tspan y="135" x="74.65625 84.43225 94.20825 100.43225 114.65625 119.10425 124.43225 134.20825 140.43225 149.32825 153.77625">dormitoryID</tspan></text>
<text xml:space="preserve" transform="matrix(.7504159 0 0 .7504159 72 72)" font-size="16" font-family="LiberationSans"><tspan y="135" x="165.32813 169.77613 174.22412 183.12012 192.01612 205.34412 214.24011 218.68811 223.13611 232.0321 240.9281 249.8241 255.1521 264.0481 272.0481 280.0481 284.4961">, name, address, </tspan></text>
<text xml:space="preserve" transform="matrix(.7504159 0 0 .7504159 72 72)" font-size="16" font-family="LiberationSans" font-weight="bold"><tspan y="135" x="288.9375 298.7135 308.4895 312.9375 321.8335 330.7295 336.9535 345.8495 350.2975 355.6255 364.52149 368.96949">universityID</tspan></text>
<text xml:space="preserve" transform="matrix(.7504159 0 0 .7504159 72 72)" font-size="16" font-family="LiberationSans"><tspan y="135" x="380.51564 385.84364 390.29164 394.73963 403.63563 412.53163 416.08363 424.08363 432.9796 438.30763 446.30763 449.85963 454.30763 462.30763 466.7556 478.30763">), universityID </tspan></text>
<text xml:space="preserve" transform="matrix(.7504159 0 0 .7504159 72 72)" font-size="16" font-family="Unnamed"><tspan y="135" x="482.7578">&#x2286;</tspan></text>
<text xml:space="preserve" transform="matrix(.7504159 0 0 .7504159 72 72)" font-size="16" font-family="LiberationSans"><tspan y="135" x="498.75"> </tspan></text>
<text xml:space="preserve" transform="matrix(.7504159 0 0 .7504159 72 72)" font-size="16" font-family="LiberationSans"><tspan y="159" x="0 11.552001 20.448002 24.000002 32 40.896 46.224 54.224 57.776 62.224004 69.046878">University.</tspan></text>
<path transform="matrix(.7504159,0,0,.7504159,72,72)" d="M 73 162 L 165 162 L 165 163 L 73 163 Z "/>
<path transform="matrix(.7504159,0,0,.7504159,72,72)" d="M 73 162 L 165 162 L 165 163 L 73 163 Z "/>
<path transform="matrix(.7504159,0,0,.7504159,72,72)" d="M 73 162 L 165 162 L 165 163 L 73 163 Z "/>
<path transform="matrix(.7504159,0,0,.7504159,72,72)" d="M 73 162 L 165 162 L 165 163 L 73 163 Z "/>
<path transform="matrix(.7504159,0,0,.7504159,72,72)" d="M 73 162 L 165 162 L 165 163 L 73 163 Z "/>
<path transform="matrix(.7504159,0,0,.7504159,72,72)" d="M 73 162 L 165 162 L 165 163 L 73 163 Z "/>
<path transform="matrix(.7504159,0,0,.7504159,72,72)" d="M 73 162 L 165 162 L 165 163 L 73 163 Z "/>
<path transform="matrix(.7504159,0,0,.7504159,72,72)" d="M 73 162 L 165 162 L 165 163 L 73 163 Z "/>
<path transform="matrix(.7504159,0,0,.7504159,72,72)" d="M 73 162 L 165 162 L 165 163 L 73 163 Z "/>
<path transform="matrix(.7504159,0,0,.7504159,72,72)" d="M 73 162 L 165 162 L 165 163 L 73 163 Z "/>
<path transform="matrix(.7504159,0,0,.7504159,72,72)" d="M 73 162 L 165 162 L 165 163 L 73 163 Z "/>
<path transform="matrix(.7504159,0,0,.7504159,72,72)" d="M 73 162 L 165 162 L 165 163 L 73 163 Z "/>
<text xml:space="preserve" transform="matrix(.7504159 0 0 .7504159 72 72)" font-size="16" font-family="LiberationSans" font-weight="bold"><tspan y="159" x="73.484378 83.260379 93.03638 97.484378 106.38038 115.27638 121.50038 130.39638 134.84438 140.17238 149.06838 153.51638">universityID</tspan></text>
<text xml:space="preserve" transform="matrix(.7504159 0 0 .7504159 72 72)" font-size="16" font-family="LiberationSans"><tspan y="223" x="0 10.672001 15.120001 24.016003 32.912004 41.808004 50.704004 55.152006">Student(</tspan></text>
<path transform="matrix(.7504159,0,0,.7504159,72,72)" d="M 60 226 L 134 226 L 134 227 L 60 227 Z "/>
<text xml:space="preserve" transform="matrix(.7504159 0 0 .7504159 72 72)" font-size="16" font-family="LiberationSans" font-weight="bold"><tspan y="223" x="60.484376 69.38038 74.70838 84.48438 94.26038 103.15639 112.93239 118.26039 122.70839">studentID</tspan></text>
<text xml:space="preserve" transform="matrix(.7504159 0 0 .7504159 72 72)" font-size="16" font-family="LiberationSans"><tspan y="223" x="134.25 138.698 143.146 152.04199 155.594 163.594 172.48999 181.38599 192.93799 201.83399 215.16199 224.05799 228.50598 232.95398 237.40198 246.29798 259.62599 263.17799 266.72999 274.72999 286.28199 295.17799 308.50599 317.40199 321.84999 326.29798 334.29798 338.74598 347.64198 356.53797 364.53797 373.7578 382.6538 391.5498 396 400.448">, givenName, familyName, studyYear, </tspan></text>
<text xml:space="preserve" transform="matrix(.7504159 0 0 .7504159 72 72)" font-size="16" font-family="LiberationSans" font-weight="bold"><tspan y="223" x="404.89064 414.66664 424.44264 430.66664 444.89064 449.33863 454.66664 464.44264 470.66664 479.56263 484.01063">dormitoryID</tspan></text>
<text xml:space="preserve" transform="matrix(.7504159 0 0 .7504159 72 72)" font-size="16" font-family="LiberationSans"><tspan y="223" x="495.5625 500.0105">, </tspan></text>
<text xml:space="preserve" transform="matrix(.7504159 0 0 .7504159 72 72)" font-size="16" font-family="LiberationSans" font-weight="bold"><tspan y="223" x="504.45314 509.78114 518.6771 527.5731 537.3491 541.7971 547.1251 556.0211 560.4691">facultyID</tspan></text>
<text xml:space="preserve" transform="matrix(.7504159 0 0 .7504159 72 72)" font-size="16" font-family="LiberationSans"><tspan y="223" x="572.0156 577.3436">),</tspan></text>
<text xml:space="preserve" transform="matrix(.7504159 0 0 .7504159 72 72)" font-size="16" font-family="LiberationSans"><tspan y="223" x="581.78128"> </tspan></text>
<text xml:space="preserve" transform="matrix(.7504159 0 0 .7504159 72 72)" font-size="16" font-family="LiberationSans"><tspan y="247" x="0 8.896001 17.792002 23.120003 36.448007 40.000009 44.44801 53.34401 58.67201 66.67201 71.12001 82.67201">dormitoryID </tspan></text>
<text xml:space="preserve" transform="matrix(.7504159 0 0 .7504159 72 72)" font-size="16" font-family="Unnamed"><tspan y="247" x="87.125">&#x2286;</tspan></text>
<text xml:space="preserve" transform="matrix(.7504159 0 0 .7504159 72 72)" font-size="16" font-family="LiberationSans"><tspan y="247" x="103.12503 107.57303 119.12503 128.02103 133.34903 146.67704 150.22904 154.67704 163.57303 168.90103 175.71878"> Dormitory.</tspan></text>
<path transform="matrix(.7504159,0,0,.7504159,72,72)" d="M 180 250 L 271 250 L 271 251 L 180 251 Z "/>
<text xml:space="preserve" transform="matrix(.7504159 0 0 .7504159 72 72)" font-size="16" font-family="LiberationSans" font-weight="bold"><tspan y="247" x="180.15625 189.93225 199.70825 205.93225 220.15625 224.60425 229.93225 239.70825 245.93225 254.82825 259.27626">dormitoryID</tspan></text>
<text xml:space="preserve" transform="matrix(.7504159 0 0 .7504159 72 72)" font-size="16" font-family="LiberationSans"><tspan y="247" x="270.82814 275.27613 279.72413 284.17213 293.0681 301.0681 309.9641 313.5161 317.9641 325.9641 330.4121 341.9641">, facultyID </tspan></text>
<text xml:space="preserve" transform="matrix(.7504159 0 0 .7504159 72 72)" font-size="16" font-family="Unnamed"><tspan y="247" x="346.40626">&#x2286;</tspan></text>
<text xml:space="preserve" transform="matrix(.7504159 0 0 .7504159 72 72)" font-size="16" font-family="LiberationSans"><tspan y="247" x="362.40629 366.85429 376.63029 385.52629 393.52629 402.42228 405.97428 410.42228 417.2344"> Faculty.</tspan></text>
<path transform="matrix(.7504159,0,0,.7504159,72,72)" d="M 422 250 L 489 250 L 489 251 L 422 251 Z "/>
<text xml:space="preserve" transform="matrix(.7504159 0 0 .7504159 72 72)" font-size="16" font-family="LiberationSans" font-weight="bold"><tspan y="247" x="421.67189 426.99989 435.89588 444.79188 454.56788 459.01588 464.34388 473.23988 477.68788">facultyID</tspan></text>
<text xml:space="preserve" transform="matrix(.7504159 0 0 .7504159 72 72)" font-size="16" font-family="LiberationSans"><tspan y="311" x="0 11.552001 15.104001 23.104 31.104 40 48.896 62.224 71.12">Nickname(</tspan></text>
<path transform="matrix(.7504159,0,0,.7504159,72,72)" d="M 76 314 L 166 314 L 166 315 L 76 315 Z "/>
<text xml:space="preserve" transform="matrix(.7504159 0 0 .7504159 72 72)" font-size="16" font-family="LiberationSans" font-weight="bold"><tspan y="311" x="76.453128 86.229129 90.677127 99.57313 108.46913 118.24513 127.141139 141.36515 150.26114 154.70914">nicknameID</tspan></text>
<text xml:space="preserve" transform="matrix(.7504159 0 0 .7504159 72 72)" font-size="16" font-family="LiberationSans"><tspan y="311" x="166.26563 170.71363 175.16162 184.05762 187.60962 195.60962 203.60962 212.50562 221.40161 234.72962 243.62561 248.07361">, nickname, </tspan></text>
<text xml:space="preserve" transform="matrix(.7504159 0 0 .7504159 72 72)" font-size="16" font-family="LiberationSans" font-weight="bold"><tspan y="311" x="252.51563 261.41163 266.73963 276.51564 286.29164 295.18763 304.96363 310.29164 314.73963">studentID</tspan></text>
<text xml:space="preserve" transform="matrix(.7504159 0 0 .7504159 72 72)" font-size="16" font-family="LiberationSans"><tspan y="311" x="326.28126 331.60926 336.05726 340.50526 348.50526 352.95326 361.84925 370.74525 379.64125 388.53724 392.98524 397.43324 408.98524">), studentID </tspan></text>
<text xml:space="preserve" transform="matrix(.7504159 0 0 .7504159 72 72)" font-size="16" font-family="Unnamed"><tspan y="311" x="413.4297">&#x2286;</tspan></text>
<text xml:space="preserve" transform="matrix(.7504159 0 0 .7504159 72 72)" font-size="16" font-family="LiberationSans"><tspan y="311" x="429.42973 433.87773 444.5497 448.9977 457.8937 466.7897 475.6857 484.5817 489.0297"> Student.</tspan></text>
<text xml:space="preserve" transform="matrix(.7504159 0 0 .7504159 72 72)" font-size="16" font-family="LiberationSans" font-weight="bold"><tspan y="311" x="493.46876 502.36476 507.69276 517.46878 527.24478 536.14077 545.91677 551.24478 555.69277">studentID</tspan></text>
<text xml:space="preserve" transform="matrix(.7504159 0 0 .7504159 72 72)" font-size="16" font-family="LiberationSans"><tspan y="375" x="0 11.552001 20.448002 24.000002 32 40.896 46.224 54.224 57.776 62.224004 70.224">University(</tspan></text>
<path transform="matrix(.7504159,0,0,.7504159,72,72)" d="M 76 378 L 167 378 L 167 379 L 76 379 Z "/>
<text xml:space="preserve" transform="matrix(.7504159 0 0 .7504159 72 72)" font-size="16" font-family="LiberationSans" font-weight="bold"><tspan y="375" x="75.5625 85.3385 95.1145 99.5625 108.4585 117.35451 123.57851 132.4745 136.9225 142.2505 151.1465 155.5945">universityID</tspan></text>
<text xml:space="preserve" transform="matrix(.7504159 0 0 .7504159 72 72)" font-size="16" font-family="LiberationSans"><tspan y="375" x="167.14063 171.58863 176.03662 184.93262 193.82862 207.15662 216.05261 220.50061 224.94861 233.8446 242.7406 247.1886 256.0846 268.5326 272.9806 283.6526 291.6526 296.1006 304.99659 313.89259 317.44459 320.99659 328.99659 337.89259 351.22059 360.11659 369.01258 373.46058 377.90858 382.35658 391.25257 400.14857 409.04457 414.37257 423.26856 431.26856 439.26856">, name, dateOfEstablishment, address)</tspan></text>
<text xml:space="preserve" transform="matrix(.7504159 0 0 .7504159 72 72)" font-size="16" font-family="LiberationSans"><tspan y="439" x="0 9.776 18.672 26.672 35.568 39.120004 43.568006 51.568006">Faculty(</tspan></text>
<path transform="matrix(.7504159,0,0,.7504159,72,72)" d="M 57 442 L 124 442 L 124 443 L 57 443 Z "/>
<text xml:space="preserve" transform="matrix(.7504159 0 0 .7504159 72 72)" font-size="16" font-family="LiberationSans" font-weight="bold"><tspan y="439" x="56.890626 62.218626 71.114627 80.01063 89.78663 94.23463 99.56263 108.45863 112.90663">facultyID</tspan></text>
<text xml:space="preserve" transform="matrix(.7504159 0 0 .7504159 72 72)" font-size="16" font-family="LiberationSans"><tspan y="439" x="124.453128 128.90113 133.34912 142.24512 151.14112 164.46912 173.36511 177.81311 182.26111 191.1571 200.0531 204.5011 213.3971 225.8451 230.29309 240.96509 248.96509 253.41309 262.30909 271.20509 274.75709 278.30909 286.30909 295.20509 308.53309 317.42909 326.32508 330.77308 335.22108">, name, dateOfEstablishment, </tspan></text>
<text xml:space="preserve" transform="matrix(.7504159 0 0 .7504159 72 72)" font-size="16" font-family="LiberationSans" font-weight="bold"><tspan y="439" x="339.67189 349.44789 359.22389 363.67189 372.56788 381.46388 387.68788 396.58387 401.03187 406.35987 415.25587 419.70387">universityID</tspan></text>
<text xml:space="preserve" transform="matrix(.7504159 0 0 .7504159 72 72)" font-size="16" font-family="LiberationSans"><tspan y="439" x="431.25 436.578 441.026 445.474 454.37 463.266 466.818 474.818 483.714 489.042 497.042 500.594 505.042 513.042 517.49 529.042">), universityID </tspan></text>
<text xml:space="preserve" transform="matrix(.7504159 0 0 .7504159 72 72)" font-size="16" font-family="Unnamed"><tspan y="439" x="533.4922">&#x2286;</tspan></text>
<text xml:space="preserve" transform="matrix(.7504159 0 0 .7504159 72 72)" font-size="16" font-family="LiberationSans"><tspan y="439" x="549.4844"> </tspan></text>
<text xml:space="preserve" transform="matrix(.7504159 0 0 .7504159 72 72)" font-size="16" font-family="LiberationSans"><tspan y="463" x="0 11.552001 20.448002 24.000002 32 40.896 46.224 54.224 57.776 62.224004 69.046878">University.</tspan></text>
<path transform="matrix(.7504159,0,0,.7504159,72,72)" d="M 73 466 L 165 466 L 165 467 L 73 467 Z "/>
<path transform="matrix(.7504159,0,0,.7504159,72,72)" d="M 73 466 L 165 466 L 165 467 L 73 467 Z "/>
<path transform="matrix(.7504159,0,0,.7504159,72,72)" d="M 73 466 L 165 466 L 165 467 L 73 467 Z "/>
<path transform="matrix(.7504159,0,0,.7504159,72,72)" d="M 73 466 L 165 466 L 165 467 L 73 467 Z "/>
<path transform="matrix(.7504159,0,0,.7504159,72,72)" d="M 73 466 L 165 466 L 165 467 L 73 467 Z "/>
<path transform="matrix(.7504159,0,0,.7504159,72,72)" d="M 73 466 L 165 466 L 165 467 L 73 467 Z "/>
<path transform="matrix(.7504159,0,0,.7504159,72,72)" d="M 73 466 L 165 466 L 165 467 L 73 467 Z "/>
<path transform="matrix(.7504159,0,0,.7504159,72,72)" d="M 73 466 L 165 466 L 165 467 L 73 467 Z "/>
<path transform="matrix(.7504159,0,0,.7504159,72,72)" d="M 73 466 L 165 466 L 165 467 L 73 467 Z "/>
<path transform="matrix(.7504159,0,0,.7504159,72,72)" d="M 73 466 L 165 466 L 165 467 L 73 467 Z "/>
<path transform="matrix(.7504159,0,0,.7504159,72,72)" d="M 73 466 L 165 466 L 165 467 L 73 467 Z "/>
<path transform="matrix(.7504159,0,0,.7504159,72,72)" d="M 73 466 L 165 466 L 165 467 L 73 467 Z "/>
<text xml:space="preserve" transform="matrix(.7504159 0 0 .7504159 72 72)" font-size="16" font-family="LiberationSans" font-weight="bold"><tspan y="463" x="73.484378 83.260379 93.03638 97.484378 106.38038 115.27638 121.50038 130.39638 134.84438 140.17238 149.06838 153.51638">universityID</tspan></text>
<text xml:space="preserve" transform="matrix(.7504159 0 0 .7504159 72 72)" font-size="16" font-family="LiberationSans"><tspan y="527" x="0 8 16.896 25.792 33.792 42.688 51.584 56.912">Teacher(</tspan></text>
<path transform="matrix(.7504159,0,0,.7504159,72,72)" d="M 62 530 L 135 530 L 135 531 L 62 531 Z "/>
<text xml:space="preserve" transform="matrix(.7504159 0 0 .7504159 72 72)" font-size="16" font-family="LiberationSans" font-weight="bold"><tspan y="527" x="62.25 67.578 76.47401 85.37001 94.266017 104.042018 112.93802 119.16202 123.610019">teacherID</tspan></text>
<text xml:space="preserve" transform="matrix(.7504159 0 0 .7504159 72 72)" font-size="16" font-family="LiberationSans"><tspan y="527" x="135.17188 139.61988 144.06787 152.96387 156.51587 164.51587 173.41187 182.30786 193.85987 202.75586 216.08386 224.97986 229.42786 233.87586 238.32386 247.21985 260.54786 264.09986 267.65187 275.65187 287.20387 296.09986 309.42787 318.32386 322.77186 327.21986 331.66786 335.21986 339.66786 343.21986 352.11585">, givenName, familyName, title)</tspan></text>
<text xml:space="preserve" transform="matrix(.7504159 0 0 .7504159 72 72)" font-size="16" font-family="LiberationSans"><tspan y="591" x="0 8 16.896 25.792 33.792 42.688 51.584 59.584 70.256 74.703998">TeachesAt(</tspan></text>
<path transform="matrix(.7504159,0,0,.7504159,72,72)" d="M 80 594 L 229 594 L 229 595 L 80 595 Z "/>
<text xml:space="preserve" transform="matrix(.7504159 0 0 .7504159 72 72)" font-size="16" font-family="LiberationSans" font-weight="bold"><tspan y="591" x="80.03125 85.35925 94.25526 103.15126 112.047267 121.823268 130.71927 136.94327 141.39127 152.94327 157.39127 161.83927 167.16727 176.06327 184.95926 194.73526 199.18326 204.51126 213.40726 217.85526">teacherID, facultyID</tspan></text>
<text xml:space="preserve" transform="matrix(.7504159 0 0 .7504159 72 72)" font-size="16" font-family="LiberationSans"><tspan y="591" x="229.40625 234.73426 239.18225 243.63025 248.07825 256.97425 265.87025 273.87025 282.76625 291.66224 296.99024 301.43824 312.99024">), teacherID </tspan></text>
<text xml:space="preserve" transform="matrix(.7504159 0 0 .7504159 72 72)" font-size="16" font-family="Unnamed"><tspan y="591" x="317.4375">&#x2286;</tspan></text>
<text xml:space="preserve" transform="matrix(.7504159 0 0 .7504159 72 72)" font-size="16" font-family="LiberationSans"><tspan y="591" x="333.43754 337.88554 345.88285 354.77885 363.67485 371.67485 380.57084 389.46684 393.9219"> Teacher.</tspan></text>
<path transform="matrix(.7504159,0,0,.7504159,72,72)" d="M 398 594 L 471 594 L 471 595 L 398 595 Z "/>
<text xml:space="preserve" transform="matrix(.7504159 0 0 .7504159 72 72)" font-size="16" font-family="LiberationSans" font-weight="bold"><tspan y="591" x="398.35939 403.68739 412.58338 421.47938 430.37538 440.15138 449.04737 455.27137 459.71937">teacherID</tspan></text>
<text xml:space="preserve" transform="matrix(.7504159 0 0 .7504159 72 72)" font-size="16" font-family="LiberationSans"><tspan y="591" x="471.28126 475.72926 480.17726 484.62525 493.52125 501.52125 510.41725 513.96926 518.41726 526.41726 530.86526 542.41726">, facultyID </tspan></text>
<text xml:space="preserve" transform="matrix(.7504159 0 0 .7504159 72 72)" font-size="16" font-family="Unnamed"><tspan y="591" x="546.8594">&#x2286;</tspan></text>
<text xml:space="preserve" transform="matrix(.7504159 0 0 .7504159 72 72)" font-size="16" font-family="LiberationSans"><tspan y="591" x="562.8594"> </tspan></text>
<text xml:space="preserve" transform="matrix(.7504159 0 0 .7504159 72 72)" font-size="16" font-family="LiberationSans"><tspan y="615" x="0 9.776 18.672 26.672 35.568 39.120004 43.568006 50.382814">Faculty.</tspan></text>
<path transform="matrix(.7504159,0,0,.7504159,72,72)" d="M 55 618 L 122 618 L 122 619 L 55 619 Z "/>
<text xml:space="preserve" transform="matrix(.7504159 0 0 .7504159 72 72)" font-size="16" font-family="LiberationSans" font-weight="bold"><tspan y="615" x="54.828126 60.156126 69.052127 77.94813 87.72413 92.17213 97.50013 106.39613 110.84413">facultyID</tspan></text>
<text xml:space="preserve" transform="matrix(.7504159 0 0 .7504159 72 72)" font-size="16" font-family="LiberationSans"><tspan y="679" x="0 11.552001 20.448002 24.896002 33.792005 38.240007 41.792009 50.688009 59.584009">Notation:</tspan></text>
<path transform="matrix(.7504159,0,0,.7504159,72,72)" d="M 0 714 L 88 714 L 88 715 L 0 715 Z "/>
<path transform="matrix(.7504159,0,0,.7504159,72,72)" d="M 0 714 L 88 714 L 88 715 L 0 715 Z "/>
<path transform="matrix(.7504159,0,0,.7504159,72,72)" d="M 0 714 L 88 714 L 88 715 L 0 715 Z "/>
<path transform="matrix(.7504159,0,0,.7504159,72,72)" d="M 0 714 L 88 714 L 88 715 L 0 715 Z "/>
<path transform="matrix(.7504159,0,0,.7504159,72,72)" d="M 0 714 L 88 714 L 88 715 L 0 715 Z "/>
<path transform="matrix(.7504159,0,0,.7504159,72,72)" d="M 0 714 L 88 714 L 88 715 L 0 715 Z "/>
<path transform="matrix(.7504159,0,0,.7504159,72,72)" d="M 0 714 L 88 714 L 88 715 L 0 715 Z "/>
<path transform="matrix(.7504159,0,0,.7504159,72,72)" d="M 0 714 L 88 714 L 88 715 L 0 715 Z "/>
<path transform="matrix(.7504159,0,0,.7504159,72,72)" d="M 0 714 L 88 714 L 88 715 L 0 715 Z "/>
<text xml:space="preserve" transform="matrix(.7504159 0 0 .7504159 72 72)" font-size="16" font-family="LiberationSans" font-weight="bold"><tspan y="711" x="0 9.776 16 20.448 34.672 43.568 49.792 58.688 70.24 79.136">primaryKey</tspan></text>
<text xml:space="preserve" transform="matrix(.7504159 0 0 .7504159 72 72)" font-size="16" font-family="LiberationSans" font-weight="bold"><tspan y="743" x="0 5.328 15.104 21.328001 30.224003 34.672006 44.448007 54.224008 65.77601 74.67201">foreignKey</tspan></text>
</g>
</g>
</g>
</svg>
